<svg width="100" height="100" viewBox="0 0 100 100" fill="none" xmlns="http://www.w3.org/2000/svg">
<g clip-path="url(#clip0_4_2)">
<rect width="100" height="100" rx="10" fill="url(#paint0_linear_4_2)"/>
<path d="M62.4062 73.4688C65.4611 73.4688 67.9375 70.9923 67.9375 67.9375C67.9375 64.8827 65.4611 62.4062 62.4062 62.4062C59.3514 62.4062 56.875 64.8827 56.875 67.9375C56.875 70.9923 59.3514 73.4688 62.4062 73.4688Z" stroke="black" stroke-width="4" stroke-miterlimit="10" stroke-linecap="round" stroke-linejoin="round"/>
<path d="M36.5938 73.4688C39.6486 73.4688 42.125 70.9923 42.125 67.9375C42.125 64.8827 39.6486 62.4062 36.5938 62.4062C33.5389 62.4062 31.0625 64.8827 31.0625 67.9375C31.0625 70.9923 33.5389 73.4688 36.5938 73.4688Z" stroke="black" stroke-width="4" stroke-miterlimit="10" stroke-linecap="round" stroke-linejoin="round"/>
<path d="M66.0938 51.3438L69.7812 40.2812" stroke="black" stroke-width="4" stroke-miterlimit="10" stroke-linecap="round" stroke-linejoin="round"/>
<path d="M39.3594 26.4531L26.2688 39.5438C29.9563 43.2313 35.6719 43.2313 39.3594 39.5438C43.0469 35.8563 43.0469 29.9562 39.3594 26.4531Z" stroke="black" stroke-width="4" stroke-miterlimit="10" stroke-linecap="round" stroke-linejoin="round"/>
<path d="M32.9062 32.9062L25.5312 25.5312" stroke="black" stroke-width="4" stroke-miterlimit="10" stroke-linecap="round" stroke-linejoin="round"/>
<path d="M40.2812 40.2812L43.9688 43.9688V51.3438" stroke="black" stroke-width="4" stroke-miterlimit="10" stroke-linecap="round" stroke-linejoin="round"/>
<path d="M56.875 67.9375H42.125" stroke="black" stroke-width="4" stroke-miterlimit="10" stroke-linecap="round" stroke-linejoin="round"/>
<path d="M32.3531 64.4344L25.5312 58.7188V51.3438H73.4688V58.7188L66.6469 64.4344" stroke="black" stroke-width="4" stroke-miterlimit="10" stroke-linecap="round" stroke-linejoin="round"/>
<path d="M57.7969 45.8125C60.3426 45.8125 62.4062 43.7488 62.4062 41.2031C62.4062 38.6574 60.3426 36.5938 57.7969 36.5938C55.2512 36.5938 53.1875 38.6574 53.1875 41.2031C53.1875 43.7488 55.2512 45.8125 57.7969 45.8125Z" stroke="black" stroke-width="4" stroke-miterlimit="10" stroke-linecap="round" stroke-linejoin="round"/>
<path d="M53.1875 50.4219C53.1875 47.8406 55.2156 45.8125 57.7969 45.8125C60.3781 45.8125 62.4062 47.8406 62.4062 50.4219" stroke="black" stroke-width="4" stroke-miterlimit="10" stroke-linecap="round" stroke-linejoin="round"/>
<g filter="url(#filter0_d_4_2)">
<mask id="path-12-outside-1_4_2" maskUnits="userSpaceOnUse" x="5" y="5" width="90" height="90" fill="black">
<rect fill="white" x="5" y="5" width="90" height="90"/>
<path d="M94 50C94 74.3005 74.3005 94 50 94C25.6995 94 6 74.3005 6 50C6 25.6995 25.6995 6 50 6C74.3005 6 94 25.6995 94 50ZM8.85061 50C8.85061 72.7262 27.2738 91.1494 50 91.1494C72.7262 91.1494 91.1494 72.7262 91.1494 50C91.1494 27.2738 72.7262 8.85061 50 8.85061C27.2738 8.85061 8.85061 27.2738 8.85061 50Z"/>
</mask>
<path d="M94 50C94 74.3005 74.3005 94 50 94C25.6995 94 6 74.3005 6 50C6 25.6995 25.6995 6 50 6C74.3005 6 94 25.6995 94 50ZM8.85061 50C8.85061 72.7262 27.2738 91.1494 50 91.1494C72.7262 91.1494 91.1494 72.7262 91.1494 50C91.1494 27.2738 72.7262 8.85061 50 8.85061C27.2738 8.85061 8.85061 27.2738 8.85061 50Z" fill="black"/>
<path d="M94 50C94 74.3005 74.3005 94 50 94C25.6995 94 6 74.3005 6 50C6 25.6995 25.6995 6 50 6C74.3005 6 94 25.6995 94 50ZM8.85061 50C8.85061 72.7262 27.2738 91.1494 50 91.1494C72.7262 91.1494 91.1494 72.7262 91.1494 50C91.1494 27.2738 72.7262 8.85061 50 8.85061C27.2738 8.85061 8.85061 27.2738 8.85061 50Z" stroke="black" stroke-width="2" stroke-dasharray="2 2" mask="url(#path-12-outside-1_4_2)"/>
</g>
</g>
<defs>
<filter id="filter0_d_4_2" x="1" y="5" width="98" height="98" filterUnits="userSpaceOnUse" color-interpolation-filters="sRGB">
<feFlood flood-opacity="0" result="BackgroundImageFix"/>
<feColorMatrix in="SourceAlpha" type="matrix" values="0 0 0 0 0 0 0 0 0 0 0 0 0 0 0 0 0 0 127 0" result="hardAlpha"/>
<feOffset dy="4"/>
<feGaussianBlur stdDeviation="2"/>
<feComposite in2="hardAlpha" operator="out"/>
<feColorMatrix type="matrix" values="0 0 0 0 0 0 0 0 0 0 0 0 0 0 0 0 0 0 0.25 0"/>
<feBlend mode="normal" in2="BackgroundImageFix" result="effect1_dropShadow_4_2"/>
<feBlend mode="normal" in="SourceGraphic" in2="effect1_dropShadow_4_2" result="shape"/>
</filter>
<linearGradient id="paint0_linear_4_2" x1="30.5" y1="-1.5229e-07" x2="50" y2="100" gradientUnits="userSpaceOnUse">
<stop stop-color="#FFD9AC"/>
<stop offset="1" stop-color="#EBB0FF"/>
</linearGradient>
<clipPath id="clip0_4_2">
<rect width="100" height="100" rx="10" fill="white"/>
</clipPath>
</defs>
</svg>
